<svg width="16" height="16" viewBox="0 0 16 16" fill="none" xmlns="http://www.w3.org/2000/svg">
<g clip-path="url(#clip0_251_23)">
<path d="M10.606 8.08195L16 11.492V4.52795L10.606 8.08195Z" fill="#EEB45E"/>
<path d="M0 4.52795V11.492L5.394 8.08195L0 4.52795Z" fill="#EEB45E"/>
<path d="M15 2.49994H1.00003C0.501029 2.49994 0.105029 2.87194 0.0300293 3.35094L8.00003 8.60194L15.97 3.35094C15.895 2.87194 15.499 2.49994 15 2.49994Z" fill="#EEB45E"/>
<path d="M9.68998 8.68594L8.27498 9.61794C8.19098 9.67294 8.09598 9.69994 7.99998 9.69994C7.90398 9.69994 7.80898 9.67294 7.72498 9.61794L6.30998 8.68494L0.0319824 12.6559C0.108982 13.1309 0.502982 13.4999 0.999982 13.4999H15C15.497 13.4999 15.891 13.1309 15.968 12.6559L9.68998 8.68594Z" fill="#EEB45E"/>
</g>
<defs>
<clipPath id="clip0_251_23">
<rect width="16" height="16" fill="white"/>
</clipPath>
</defs>
</svg>
