<svg width="29" height="29" viewBox="0 0 29 29" fill="none" xmlns="http://www.w3.org/2000/svg">
<path fill-rule="evenodd" clip-rule="evenodd" d="M0 5.8C0 2.59675 2.59675 0 5.8 0H23.2C26.4032 0 29 2.59675 29 5.8V23.2C29 26.4032 26.4032 29 23.2 29H5.8C2.59675 29 0 26.4032 0 23.2V5.8ZM5.8 2.9C4.19837 2.9 2.9 4.19837 2.9 5.8V23.2C2.9 24.8017 4.19837 26.1 5.8 26.1H14.5V15.95H13.05C12.2492 15.95 11.6 15.3008 11.6 14.5C11.6 13.6992 12.2492 13.05 13.05 13.05H14.5V10.875C14.5 8.07215 16.7722 5.8 19.575 5.8H20.445C21.2458 5.8 21.895 6.44919 21.895 7.25C21.895 8.05081 21.2458 8.7 20.445 8.7H19.575C18.3738 8.7 17.4 9.67378 17.4 10.875V13.05H20.445C21.2458 13.05 21.895 13.6992 21.895 14.5C21.895 15.3008 21.2458 15.95 20.445 15.95H17.4V26.1H23.2C24.8017 26.1 26.1 24.8017 26.1 23.2V5.8C26.1 4.19837 24.8017 2.9 23.2 2.9H5.8Z" fill="url(#paint0_linear_112_5673)"/>
<defs>
<linearGradient id="paint0_linear_112_5673" x1="0" y1="14.4999" x2="29" y2="14.4999" gradientUnits="userSpaceOnUse">
<stop stop-color="#947341"/>
<stop offset="0.141176" stop-color="#B38F52"/>
<stop offset="0.301961" stop-color="#D2AB63"/>
<stop offset="0.521569" stop-color="#E5D896"/>
<stop offset="0.721569" stop-color="#D2AB63"/>
<stop offset="1" stop-color="#846439"/>
</linearGradient>
</defs>
</svg>
