<svg width="16" height="16" viewBox="0 0 16 16" fill="none" xmlns="http://www.w3.org/2000/svg">
<path fill-rule="evenodd" clip-rule="evenodd" d="M0 3.2C0 1.43269 1.43269 0 3.2 0H12.8C14.5673 0 16 1.43269 16 3.2V12.8C16 14.5673 14.5673 16 12.8 16H3.2C1.43269 16 0 14.5673 0 12.8V3.2ZM3.2 1.6C2.31634 1.6 1.6 2.31634 1.6 3.2V12.8C1.6 13.6837 2.31634 14.4 3.2 14.4H8V8.8H7.2C6.75816 8.8 6.4 8.44184 6.4 8C6.4 7.55816 6.75816 7.2 7.2 7.2H8V6C8 4.4536 9.2536 3.2 10.8 3.2H11.28C11.7218 3.2 12.08 3.55818 12.08 4C12.08 4.44182 11.7218 4.8 11.28 4.8H10.8C10.1373 4.8 9.6 5.33726 9.6 6V7.2H11.28C11.7218 7.2 12.08 7.55816 12.08 8C12.08 8.44184 11.7218 8.8 11.28 8.8H9.6V14.4H12.8C13.6837 14.4 14.4 13.6837 14.4 12.8V3.2C14.4 2.31634 13.6837 1.6 12.8 1.6H3.2Z" fill="#EEB45E"/>
</svg>
