<svg width="29" height="29" viewBox="0 0 29 29" fill="none" xmlns="http://www.w3.org/2000/svg">
<path fill-rule="evenodd" clip-rule="evenodd" d="M0 5.79994C0 2.59669 2.59675 -6.10352e-05 5.8 -6.10352e-05H23.2C26.4032 -6.10352e-05 29 2.59669 29 5.79994V23.1999C29 26.4031 26.4032 28.9999 23.2 28.9999H5.8C2.59675 28.9999 0 26.4031 0 23.1999V5.79994ZM5.8 2.89994C4.19837 2.89994 2.9 4.19831 2.9 5.79994V23.1999C2.9 24.8016 4.19837 26.0999 5.8 26.0999H14.5V15.9499H13.05C12.2492 15.9499 11.6 15.3008 11.6 14.4999C11.6 13.6991 12.2492 13.0499 13.05 13.0499H14.5V10.8749C14.5 8.07209 16.7722 5.79994 19.575 5.79994H20.445C21.2458 5.79994 21.895 6.44913 21.895 7.24994C21.895 8.05075 21.2458 8.69994 20.445 8.69994H19.575C18.3738 8.69994 17.4 9.67372 17.4 10.8749V13.0499H20.445C21.2458 13.0499 21.895 13.6991 21.895 14.4999C21.895 15.3008 21.2458 15.9499 20.445 15.9499H17.4V26.0999H23.2C24.8017 26.0999 26.1 24.8016 26.1 23.1999V5.79994C26.1 4.19831 24.8017 2.89994 23.2 2.89994H5.8Z" fill="white"/>
</svg>
