<svg width="161" height="49" viewBox="0 0 161 49" fill="none" xmlns="http://www.w3.org/2000/svg">
<g clip-path="url(#clip0_244_48)">
<path fill-rule="evenodd" clip-rule="evenodd" d="M28.3549 33.0196H31.5945L28.3549 27.427L25.1152 33.0196H28.3549ZM51.0948 39.1127H39.7249L28.3556 19.436L16.5119 40.0164L23.1032 36.9137H28.4297V39.0804L11.3422 48.9999H0.000427246L28.439 -3.05176e-05L28.4493 0.0176471L28.4596 -3.05176e-05V0.0350858L42.6305 24.4997L51.095 39.1124L51.0948 39.1127Z" fill="url(#paint0_linear_244_48)"/>
<path fill-rule="evenodd" clip-rule="evenodd" d="M156.307 12.1653L153.696 24.4474H150.758L153.37 12.1653H148.677L146.168 24C146.018 24.6645 146.103 25.1965 146.423 25.5962C146.742 25.9963 147.235 26.196 147.902 26.196H155.818C156.471 26.196 157.042 25.9961 157.531 25.5962C158.021 25.1963 158.341 24.6643 158.49 24L161 12.1653H156.307H156.307ZM137.212 12.1653L134.233 26.1963H144.209L144.577 24.4472H139.293L141.904 12.165H137.212L137.212 12.1653ZM125.338 12.1653C124.685 12.1653 124.114 12.3657 123.625 12.7651C123.135 13.165 122.815 13.6973 122.666 14.3614L120.626 24C120.476 24.6645 120.562 25.1965 120.881 25.5962C121.2 25.9963 121.693 26.196 122.36 26.196H130.276C130.929 26.196 131.5 25.9961 131.99 25.5962C132.479 25.1963 132.798 24.6643 132.948 24L133.846 19.7705H127.379L127.012 21.5191H128.786L128.154 24.4472H125.216L127.46 13.9139H130.398L129.909 16.2321H134.601L134.989 14.3408C135.138 13.6812 135.053 13.1533 134.734 12.7582C134.414 12.3628 133.921 12.165 133.254 12.165H125.339L125.338 12.1653ZM111.262 12.1653C110.609 12.1653 110.038 12.3657 109.548 12.7651C109.058 13.165 108.738 13.6973 108.589 14.3614L106.549 24C106.4 24.6645 106.485 25.1965 106.804 25.5962C107.123 25.9963 107.617 26.196 108.283 26.196H116.199C116.852 26.196 117.423 25.9961 117.913 25.5962C118.402 25.1963 118.722 24.6643 118.871 24L120.911 14.3614C121.061 13.6973 120.976 13.165 120.656 12.7651C120.337 12.3655 119.843 12.1653 119.177 12.1653H111.261H111.262ZM113.383 13.9142H116.321L114.077 24.4474H111.139L113.383 13.9142ZM94.9815 12.1653L92.0026 26.1963H102.122C102.774 26.1963 103.346 25.9963 103.836 25.5964C104.325 25.1965 104.645 24.6645 104.794 24.0002L106.835 14.3616C106.984 13.6975 106.899 13.1653 106.58 12.7654C106.26 12.3657 105.767 12.1655 105.101 12.1655H94.9815V12.1653ZM99.3064 13.9142H102.244L100 24.4474H97.0626L99.3067 13.9142H99.3064ZM88.5348 12.1653L85.5562 26.1963H90.2487L93.2274 12.1653H88.5348ZM85.189 12.1653L80.8027 19.4043L79.4766 12.1653H74.7841L76.5593 21.8039L75.6208 26.1963H80.2925L81.2308 21.8039L87.0862 12.1653H85.189ZM65.8484 12.1653C65.1955 12.1653 64.6244 12.3657 64.1345 12.7651C63.6451 13.165 63.3251 13.6973 63.1758 14.3614L61.1357 24C60.9864 24.6645 61.0712 25.1965 61.3907 25.5962C61.7102 25.9963 62.2032 26.196 62.87 26.196H70.6428L71.0102 24.4469H65.7261L66.6647 20.0547H70.7653L71.1327 18.3061H67.0319L67.9702 13.9137H73.254L73.6212 12.1648H65.8484V12.1653ZM51.7717 12.1653C51.1191 12.1653 50.5477 12.3657 50.0578 12.7651C49.5684 13.165 49.2484 13.6973 49.0991 14.3614L48.3647 17.8589C48.2147 18.5232 48.3 19.0555 48.6198 19.4551C48.939 19.855 49.4322 20.055 50.0988 20.055H55.5257L54.5871 24.4472H51.6492L52.1389 22.1087H47.4463L47.0588 23.9997C46.9231 24.6643 47.0113 25.1963 47.3241 25.596C47.6369 25.9961 48.1265 26.1958 48.793 26.1958H56.7087C57.3618 26.1958 57.9329 25.9959 58.4226 25.596C58.912 25.1961 59.2317 24.6641 59.3813 23.9997L60.1156 20.5022C60.2652 19.8381 60.1804 19.3061 59.8606 18.9059C59.5407 18.506 59.0477 18.3061 58.3814 18.3061H52.9547L53.8933 13.9137H56.8312L56.3415 16.2318H61.0338L61.4216 14.3406C61.5709 13.681 61.4861 13.1531 61.1666 12.758C60.8469 12.3626 60.3536 12.1648 59.6876 12.1648H51.7717V12.1653ZM124.963 28.6162V35.5325H126.202V32.351H129.523V32.3412H129.583C129.771 32.3213 129.949 32.2719 130.118 32.1928C130.762 31.8964 131.208 31.2442 131.208 30.4934C131.208 29.9798 131 29.5154 130.663 29.1795L130.653 29.1597C130.316 28.8236 129.85 28.6162 129.335 28.6162H124.964H124.963ZM126.202 29.861H129.345C129.562 29.861 129.711 29.9599 129.791 30.039C129.86 30.1083 129.979 30.2662 129.979 30.4934C129.979 30.7404 129.83 30.9678 129.602 31.0665V31.0765C129.523 31.1159 129.434 31.1357 129.345 31.1357H126.202V29.861ZM117.767 28.6162V32.0743C117.767 33.2993 116.766 34.2974 115.536 34.2974C114.307 34.2974 113.306 33.2993 113.306 32.0743V28.6162H112.067V32.0743C112.067 33.9811 113.623 35.5325 115.536 35.5325C117.449 35.5325 119.006 33.9811 119.006 32.0743V28.6162H117.767ZM99.4282 32.0743C99.4282 33.9811 100.984 35.5325 102.897 35.5325C104.811 35.5325 106.367 33.9811 106.367 32.0743C106.367 30.1675 104.811 28.6162 102.897 28.6162C100.984 28.6162 99.4282 30.1673 99.4282 32.0743ZM100.667 32.0743C100.667 30.8491 101.668 29.8515 102.897 29.8515C104.126 29.8515 105.128 30.8493 105.128 32.0743C105.128 33.2993 104.126 34.2974 102.897 34.2974C101.668 34.2974 100.667 33.2993 100.667 32.0743ZM78.0659 28.6162C76.1528 28.6162 74.5967 30.1673 74.5967 32.0743C74.5967 33.9811 76.1528 35.5325 78.0659 35.5325H81.5352V31.7387H78.0659V32.9735H80.2963V34.2974H78.0659C76.8369 34.2974 75.8355 33.2993 75.8355 32.0743C75.8355 30.8491 76.8369 29.8515 78.0659 29.8515H81.5352V28.6162H78.0659ZM87.4733 28.626V35.542H88.7122V32.3608H89.9515C90.3975 32.3608 90.7841 32.598 91.0022 32.9537L91.032 33.0129L91.6963 34.3072L92.3307 35.542H93.7184L93.084 34.3072L92.0927 32.3412C92.2811 32.3213 92.4594 32.2719 92.6279 32.1928C93.2722 31.8964 93.7182 31.2442 93.7182 30.4934C93.7182 29.9798 93.5102 29.5154 93.173 29.1695C92.836 28.8336 92.3701 28.626 91.8548 28.626H87.4735H87.4733ZM88.7122 29.8608H91.8545C92.0726 29.8608 92.2212 29.9597 92.3005 30.0388C92.3698 30.1081 92.4889 30.266 92.4889 30.4931C92.4889 30.7401 92.3403 30.9676 92.1122 31.0662C92.0328 31.1059 91.9437 31.1255 91.8545 31.1255L88.7122 31.1355V29.8608Z" fill="white"/>
</g>
<defs>
<linearGradient id="paint0_linear_244_48" x1="0.000427246" y1="24.4997" x2="51.095" y2="24.4997" gradientUnits="userSpaceOnUse">
<stop stop-color="#947341"/>
<stop offset="0.141176" stop-color="#B38F52"/>
<stop offset="0.301961" stop-color="#D2AB63"/>
<stop offset="0.521569" stop-color="#E5D896"/>
<stop offset="0.721569" stop-color="#D2AB63"/>
<stop offset="1" stop-color="#846439"/>
</linearGradient>
<clipPath id="clip0_244_48">
<rect width="161" height="49" fill="white"/>
</clipPath>
</defs>
</svg>
