<svg width="16" height="16" viewBox="0 0 16 16" fill="none" xmlns="http://www.w3.org/2000/svg">
<path d="M6.62632 9.34281C5.09914 7.95437 4.75432 6.56594 4.67652 6.00966C4.65478 5.85585 4.713 5.70159 4.83404 5.59232L6.0699 4.46923C6.2517 4.30405 6.28396 4.04663 6.14769 3.8485L4.17997 1.07062C4.02922 0.851231 3.71968 0.772051 3.46521 0.887786L0.306316 2.24036C0.100539 2.33248 -0.0204961 2.53125 0.00286759 2.7387C0.168385 4.16827 0.853902 7.6825 4.65252 11.1363C8.45114 14.5901 12.316 15.2131 13.8892 15.3636C14.1174 15.3848 14.336 15.2748 14.4373 15.0877L15.9251 12.2157C16.0519 11.9849 15.9654 11.7042 15.7251 11.5669L12.6696 9.77845C12.4518 9.65444 12.1687 9.68356 11.9869 9.84868L10.7516 10.9723C10.6314 11.0823 10.4617 11.1352 10.2925 11.1155C9.68066 11.0448 8.15349 10.7313 6.62632 9.34281Z" fill="#EEB45E"/>
</svg>
