<svg width="29" height="29" viewBox="0 0 29 29" fill="none" xmlns="http://www.w3.org/2000/svg">
<path d="M3.43634 3.43635L3.43635 3.43634C4.51001 2.36269 5.85591 1.90999 7.41407 1.7005C8.90604 1.49991 10.7967 1.49995 13.1145 1.5L13.2222 1.5H15.7778L15.8855 1.5C18.2032 1.49995 20.094 1.49991 21.5859 1.7005C23.1441 1.90999 24.49 2.36268 25.5636 3.43638C26.6373 4.51003 27.09 5.85592 27.2995 7.41407C27.5001 8.90604 27.5 10.7967 27.5 13.1145V13.2222V15.7778V15.8855C27.5 18.2032 27.5001 20.094 27.2995 21.5859C27.09 23.144 26.6373 24.49 25.5637 25.5636C25.5636 25.5636 25.5636 25.5636 25.5636 25.5637M3.43634 3.43635L4.49701 4.49701C3 5.99402 3 8.40342 3 13.2222V15.7778C3 20.5965 3 23.006 4.49701 24.503C5.99402 26 8.40342 26 13.2222 26H15.7778C20.5965 26 23.006 26 24.503 24.503L25.5636 25.5637M3.43634 3.43635C2.36269 4.51001 1.90999 5.85591 1.7005 7.41407M3.43634 3.43635L1.7005 7.41407M25.5636 25.5637C24.49 26.6373 23.144 27.09 21.5859 27.2995C20.094 27.5001 18.2032 27.5 15.8855 27.5H15.7778H13.2222H13.1145C10.7967 27.5 8.90604 27.5001 7.41407 27.2995C5.85592 27.09 4.51003 26.6373 3.43638 25.5636M25.5636 25.5637L3.43638 25.5636M3.43638 25.5636C2.36268 24.49 1.90999 23.1441 1.7005 21.5859M3.43638 25.5636L1.7005 21.5859M1.7005 7.41407C1.49991 8.90604 1.49995 10.7967 1.5 13.1145M1.7005 7.41407L1.5 13.1145M1.5 13.1145L1.5 13.2222M1.5 13.1145L1.5 13.2222M1.5 13.2222V15.7778L1.5 15.8855M1.5 13.2222L1.5 15.8855M1.5 15.8855C1.49995 18.2032 1.49991 20.094 1.7005 21.5859M1.5 15.8855L1.7005 21.5859" stroke="url(#paint0_linear_112_5674)" stroke-width="3"/>
<path d="M14.5001 19.8332C17.4456 19.8332 19.8334 17.4454 19.8334 14.4999C19.8334 11.5544 17.4456 9.16656 14.5001 9.16656C11.5546 9.16656 9.16675 11.5544 9.16675 14.4999C9.16675 17.4454 11.5546 19.8332 14.5001 19.8332Z" stroke="url(#paint1_linear_112_5674)" stroke-width="3"/>
<defs>
<linearGradient id="paint0_linear_112_5674" x1="3" y1="14.4999" x2="26" y2="14.4999" gradientUnits="userSpaceOnUse">
<stop stop-color="#947341"/>
<stop offset="0.141176" stop-color="#B38F52"/>
<stop offset="0.301961" stop-color="#D2AB63"/>
<stop offset="0.521569" stop-color="#E5D896"/>
<stop offset="0.721569" stop-color="#D2AB63"/>
<stop offset="1" stop-color="#846439"/>
</linearGradient>
<linearGradient id="paint1_linear_112_5674" x1="10.6667" y1="14.4999" x2="18.3334" y2="14.4999" gradientUnits="userSpaceOnUse">
<stop stop-color="#947341"/>
<stop offset="0.141176" stop-color="#B38F52"/>
<stop offset="0.301961" stop-color="#D2AB63"/>
<stop offset="0.521569" stop-color="#E5D896"/>
<stop offset="0.721569" stop-color="#D2AB63"/>
<stop offset="1" stop-color="#846439"/>
</linearGradient>
</defs>
</svg>
