<svg width="29" height="29" viewBox="0 0 29 29" fill="none" xmlns="http://www.w3.org/2000/svg">
<path d="M3.43634 3.43629L3.43635 3.43628C4.51001 2.36263 5.85591 1.90993 7.41407 1.70044C8.90604 1.49985 10.7967 1.49989 13.1145 1.49994L13.2222 1.49994H15.7778L15.8855 1.49994C18.2032 1.49989 20.094 1.49985 21.5859 1.70044C23.1441 1.90992 24.49 2.36261 25.5636 3.43628C26.6373 4.50994 27.09 5.85584 27.2995 7.41401C27.5001 8.90598 27.5 10.7967 27.5 13.1145V13.2222V15.7777V15.8854C27.5 18.2032 27.5001 20.0939 27.2995 21.5859C27.09 23.144 26.6373 24.4899 25.5637 25.5635C25.5636 25.5635 25.5636 25.5636 25.5636 25.5636M3.43634 3.43629L4.49701 4.49694C3 5.99396 3 8.40335 3 13.2222V15.7777C3 20.5965 3 23.006 4.49701 24.5029C5.99402 25.9999 8.40342 25.9999 13.2222 25.9999H15.7778C20.5965 25.9999 23.006 25.9999 24.503 24.5029L25.5636 25.5636M3.43634 3.43629C2.36269 4.50995 1.90999 5.85585 1.7005 7.41401C1.49991 8.90598 1.49995 10.7967 1.5 13.1145L1.5 13.2222V15.7777L1.5 15.8854C1.49995 18.2032 1.49991 20.0939 1.7005 21.5859C1.90998 23.144 2.36267 24.4899 3.43634 25.5635M3.43634 3.43629L3.43634 25.5635M25.5636 25.5636C24.49 26.6373 23.144 27.0899 21.5859 27.2994C20.094 27.5 18.2032 27.5 15.8855 27.4999H15.7778H13.2222H13.1145C10.7967 27.5 8.90604 27.5 7.41407 27.2994C5.8559 27.0899 4.51 26.6372 3.43634 25.5635M25.5636 25.5636L3.43634 25.5635" stroke="white" stroke-width="3"/>
<path d="M14.5001 19.8332C17.4456 19.8332 19.8334 17.4454 19.8334 14.4998C19.8334 11.5543 17.4456 9.1665 14.5001 9.1665C11.5546 9.1665 9.16675 11.5543 9.16675 14.4998C9.16675 17.4454 11.5546 19.8332 14.5001 19.8332Z" stroke="white" stroke-width="3"/>
</svg>
