<svg width="18" height="18" viewBox="0 0 18 18" fill="none" xmlns="http://www.w3.org/2000/svg">
<path d="M2.38089 2.38089L2.38089 2.38089C2.99908 1.7627 3.77819 1.49567 4.70855 1.37059C5.60577 1.24996 6.74733 1.24998 8.16713 1.25L8.22222 1.25H9.77778L9.83287 1.25C11.2527 1.24998 12.3942 1.24996 13.2914 1.37059C14.2218 1.49567 15.0009 1.7627 15.6191 2.38089C15.6191 2.38089 15.6191 2.3809 15.6191 2.38091M2.38089 2.38089L15.6191 2.38091M2.38089 2.38089C1.7627 2.99908 1.49567 3.77819 1.37059 4.70855M2.38089 2.38089L1.37059 4.70855M15.6191 2.38091C16.2373 2.99909 16.5043 3.77819 16.6294 4.70855C16.75 5.60577 16.75 6.74734 16.75 8.16714V8.22222V9.77778V9.83286C16.75 11.2526 16.75 12.3942 16.6294 13.2914C16.5043 14.2218 16.2373 15.0009 15.6191 15.6191M15.6191 2.38091L15.6191 15.6191M15.6191 15.6191C15.6191 15.6191 15.6191 15.6191 15.6191 15.6191M15.6191 15.6191L15.6191 15.6191M15.6191 15.6191C15.6191 15.6191 15.6191 15.6191 15.6191 15.6191M15.6191 15.6191L2.38091 15.6191M15.6191 15.6191C15.0009 16.2373 14.2218 16.5043 13.2914 16.6294C12.3942 16.75 11.2526 16.75 9.83286 16.75H9.77778H8.22222H8.16714C6.74734 16.75 5.60577 16.75 4.70855 16.6294C3.77819 16.5043 2.99909 16.2373 2.38091 15.6191M2.38091 15.6191C2.3809 15.6191 2.38089 15.6191 2.38089 15.6191M2.38091 15.6191L2.38089 15.6191M1.37059 4.70855C1.24996 5.60577 1.24998 6.74733 1.25 8.16713M1.37059 4.70855L1.25 8.16713M1.25 8.16713L1.25 8.22222M1.25 8.16713L1.25 8.22222M1.25 8.22222V9.77778L1.25 9.83287M1.25 8.22222L1.25 9.83287M1.25 9.83287C1.24998 11.2527 1.24996 12.3942 1.37059 13.2914M1.25 9.83287L1.37059 13.2914M1.37059 13.2914C1.49567 14.2218 1.7627 15.0009 2.38089 15.6191M1.37059 13.2914L2.38089 15.6191" stroke="#EEB45E" stroke-width="1.5"/>
<path d="M9.00033 12.0833C10.7032 12.0833 12.0837 10.7028 12.0837 8.99996C12.0837 7.29708 10.7032 5.91663 9.00033 5.91663C7.29745 5.91663 5.91699 7.29708 5.91699 8.99996C5.91699 10.7028 7.29745 12.0833 9.00033 12.0833Z" stroke="#EEB45E" stroke-width="1.5"/>
</svg>
