<svg width="18" height="18" viewBox="0 0 18 18" fill="none" xmlns="http://www.w3.org/2000/svg">
<path d="M3.23714 0.849999L3.23672 0.850001C2.60426 0.851764 1.99822 1.10379 1.551 1.551C1.10379 1.99822 0.851764 2.60426 0.85 3.23672V3.23714L0.849999 14.7629L0.850001 14.7633C0.851764 15.3957 1.10379 16.0018 1.551 16.449C1.99822 16.8962 2.60426 17.1482 3.23672 17.15H3.23714H14.7629C15.396 17.15 16.0031 16.8985 16.4508 16.4508C16.8985 16.0031 17.15 15.396 17.15 14.7629V3.23714C17.15 2.60403 16.8985 1.99685 16.4508 1.54918C16.0031 1.1015 15.396 0.85 14.7629 0.85L3.23714 0.849999ZM15.9551 14.7623C15.9527 15.0779 15.8263 15.3799 15.6031 15.6031C15.3799 15.8263 15.0779 15.9527 14.7623 15.9551H3.23771C2.9221 15.9527 2.6201 15.8263 2.39691 15.6031C2.17373 15.3799 2.04728 15.0779 2.04485 14.7623V3.2377C2.04728 2.92209 2.17373 2.6201 2.39691 2.39691C2.6201 2.17373 2.92209 2.04728 3.2377 2.04485H14.7623C15.0779 2.04728 15.3799 2.17373 15.6031 2.39691C15.8263 2.6201 15.9527 2.9221 15.9551 3.23771V14.7623Z" fill="#EEB45E" stroke="#EEB45E" stroke-width="0.3"/>
<path d="M4.22938 14.329C4.06156 14.1612 3.96729 13.9336 3.96729 13.6963L3.96729 12.8014L3.96729 12.8014V8.77457V7.87972C3.96729 7.64239 4.06156 7.41478 4.22938 7.24696C4.3972 7.07914 4.62481 6.98486 4.86214 6.98486C5.09947 6.98486 5.32708 7.07914 5.4949 7.24696C5.66272 7.41478 5.75699 7.64239 5.75699 7.87972V8.77457V12.8014V13.6963C5.75699 13.9336 5.66272 14.1612 5.4949 14.329M4.22938 14.329C4.3972 14.4968 4.62481 14.5911 4.86214 14.5911C5.09947 14.5911 5.32708 14.4968 5.4949 14.329M4.22938 14.329L4.48745 14.071L4.22938 14.329ZM5.4949 14.329L5.41248 14.2466L5.4949 14.329Z" fill="#EEB45E" stroke="#EEB45E" stroke-width="33.3333"/>
<path d="M4.86214 5.19156C5.35635 5.19156 5.75699 4.79092 5.75699 4.29671C5.75699 3.8025 5.35635 3.40186 4.86214 3.40186C4.36793 3.40186 3.96729 3.8025 3.96729 4.29671C3.96729 4.79092 4.36793 5.19156 4.86214 5.19156Z" fill="#EEB45E" stroke="#EEB45E" stroke-width="33.3333"/>
<mask id="path-4-inside-1_189_1102" fill="white">
<path d="M14.0289 10.226V13.6981C14.0289 13.9354 13.9346 14.163 13.7668 14.3308C13.599 14.4986 13.3714 14.5929 13.134 14.5929C12.8967 14.5929 12.6691 14.4986 12.5013 14.3308C12.3335 14.163 12.2392 13.9354 12.2392 13.6981V10.226C12.2392 9.84273 12.0869 9.47514 11.8159 9.20411C11.5449 8.93309 11.1773 8.78083 10.794 8.78083C10.4107 8.78083 10.0431 8.93309 9.77208 9.20411C9.50105 9.47514 9.34879 9.84273 9.34879 10.226V13.6981C9.34879 13.9354 9.25451 14.163 9.08669 14.3308C8.91888 14.4986 8.69127 14.5929 8.45394 14.5929C8.21661 14.5929 7.989 14.4986 7.82118 14.3308C7.65336 14.163 7.55908 13.9354 7.55908 13.6981V7.8815C7.56277 7.64532 7.65824 7.41985 7.82526 7.25282C7.99229 7.0858 8.21776 6.99033 8.45394 6.98664C8.6055 6.98249 8.75537 7.01939 8.88769 7.09342C9.02001 7.16746 9.12986 7.27588 9.20561 7.40723C9.69762 7.12806 10.2543 6.98303 10.82 6.98664C11.3857 6.99026 11.9405 7.14239 12.4289 7.42782C12.9173 7.71325 13.3221 8.12196 13.6029 8.61303C13.8837 9.10411 14.0306 9.66033 14.0289 10.226Z"/>
</mask>
<path d="M14.0289 10.226V13.6981C14.0289 13.9354 13.9346 14.163 13.7668 14.3308C13.599 14.4986 13.3714 14.5929 13.134 14.5929C12.8967 14.5929 12.6691 14.4986 12.5013 14.3308C12.3335 14.163 12.2392 13.9354 12.2392 13.6981V10.226C12.2392 9.84273 12.0869 9.47514 11.8159 9.20411C11.5449 8.93309 11.1773 8.78083 10.794 8.78083C10.4107 8.78083 10.0431 8.93309 9.77208 9.20411C9.50105 9.47514 9.34879 9.84273 9.34879 10.226V13.6981C9.34879 13.9354 9.25451 14.163 9.08669 14.3308C8.91888 14.4986 8.69127 14.5929 8.45394 14.5929C8.21661 14.5929 7.989 14.4986 7.82118 14.3308C7.65336 14.163 7.55908 13.9354 7.55908 13.6981V7.8815C7.56277 7.64532 7.65824 7.41985 7.82526 7.25282C7.99229 7.0858 8.21776 6.99033 8.45394 6.98664C8.6055 6.98249 8.75537 7.01939 8.88769 7.09342C9.02001 7.16746 9.12986 7.27588 9.20561 7.40723C9.69762 7.12806 10.2543 6.98303 10.82 6.98664C11.3857 6.99026 11.9405 7.14239 12.4289 7.42782C12.9173 7.71325 13.3221 8.12196 13.6029 8.61303C13.8837 9.10411 14.0306 9.66033 14.0289 10.226Z" fill="#EEB45E"/>
<path d="M14.0289 10.226L-19.3043 10.1237L-19.3045 10.1749V10.226H14.0289ZM9.34879 10.226H-23.9845H9.34879ZM7.55908 7.8815L-25.7702 7.36063L-25.7743 7.62105V7.8815H7.55908ZM8.45394 6.98664L8.9748 40.3159L9.17065 40.3128L9.36645 40.3075L8.45394 6.98664ZM9.20561 7.40723L-19.6691 24.0614L-3.13217 52.7328L25.6554 36.3989L9.20561 7.40723ZM-19.3045 10.226V13.6981H47.3622V10.226H-19.3045ZM-19.3045 13.6981C-19.3045 5.09474 -15.8868 -3.15609 -9.80344 -9.23942L37.337 37.901C43.756 31.4821 47.3622 22.776 47.3622 13.6981H-19.3045ZM-9.80344 -9.23942C-3.72003 -15.3228 4.53083 -18.7404 13.134 -18.7404V47.9262C22.2119 47.9262 30.918 44.3201 37.337 37.901L-9.80344 -9.23942ZM13.134 -18.7404C21.7372 -18.7404 29.988 -15.3229 36.0715 -9.23942L-11.069 37.901C-4.64986 44.3201 4.05624 47.9262 13.134 47.9262V-18.7404ZM36.0715 -9.23942C42.1549 -3.15603 45.5725 5.09483 45.5725 13.6981H-21.0942C-21.0942 22.7759 -17.488 31.482 -11.069 37.901L36.0715 -9.23942ZM45.5725 13.6981V10.226H-21.0942V13.6981H45.5725ZM45.5725 10.226C45.5725 1.00218 41.9083 -7.84387 35.3861 -14.3661L-11.7543 32.7743C-17.7345 26.7942 -21.0942 18.6833 -21.0942 10.226H45.5725ZM35.3861 -14.3661C28.8639 -20.8884 20.0178 -24.5525 10.794 -24.5525V42.1142C2.33672 42.1142 -5.77415 38.7545 -11.7543 32.7743L35.3861 -14.3661ZM10.794 -24.5525C1.57015 -24.5525 -7.27591 -20.8884 -13.7981 -14.3661L33.3423 32.7743C27.3621 38.7545 19.2512 42.1142 10.794 42.1142V-24.5525ZM-13.7981 -14.3661C-20.3204 -7.84387 -23.9845 1.00218 -23.9845 10.226H42.6821C42.6821 18.6833 39.3225 26.7942 33.3423 32.7743L-13.7981 -14.3661ZM-23.9845 10.226V13.6981H42.6821V10.226H-23.9845ZM-23.9845 13.6981C-23.9845 5.09483 -20.5669 -3.15603 -14.4835 -9.23942L32.6569 37.901C39.0759 31.482 42.6821 22.7759 42.6821 13.6981H-23.9845ZM-14.4835 -9.23942C-8.40009 -15.3229 -0.149223 -18.7404 8.45394 -18.7404V47.9262C17.5318 47.9262 26.2378 44.3201 32.6569 37.901L-14.4835 -9.23942ZM8.45394 -18.7404C17.0571 -18.7404 25.3079 -15.3229 31.3914 -9.23942L-15.749 37.901C-9.32995 44.3201 -0.62385 47.9262 8.45394 47.9262V-18.7404ZM31.3914 -9.23942C37.4748 -3.15597 40.8924 5.09491 40.8924 13.6981H-25.7743C-25.7743 22.7759 -22.1681 31.482 -15.749 37.901L31.3914 -9.23942ZM40.8924 13.6981V7.8815H-25.7743V13.6981H40.8924ZM40.8883 8.40236C40.7567 16.8253 37.3522 24.8664 31.3955 30.823L-15.745 -16.3174C-22.0357 -10.0267 -25.6312 -1.53464 -25.7702 7.36063L40.8883 8.40236ZM31.3955 30.823C25.4388 36.7797 17.3978 40.1843 8.9748 40.3159L7.93307 -26.3426C-0.962244 -26.2036 -9.45426 -22.6081 -15.745 -16.3174L31.3955 30.823ZM9.36645 40.3075C3.51176 40.4678 -2.27738 39.0427 -7.38854 36.1829L25.1639 -21.996C19.7881 -25.0039 13.6992 -26.5028 7.54143 -26.3342L9.36645 40.3075ZM-7.38854 36.1829C-12.4998 33.323 -16.7429 29.1348 -19.6691 24.0614L38.0803 -9.24695C35.0026 -14.583 30.5398 -18.9881 25.1639 -21.996L-7.38854 36.1829ZM25.6554 36.3989C21.0692 39.0011 15.8799 40.353 10.607 40.3193L11.033 -26.346C4.62873 -26.3869 -1.67395 -24.7449 -7.24416 -21.5844L25.6554 36.3989ZM10.607 40.3193C5.33408 40.2856 0.162515 38.8675 -4.39005 36.2069L29.2478 -21.3512C23.7185 -24.5827 17.4373 -26.3051 11.033 -26.346L10.607 40.3193ZM-4.39005 36.2069C-8.9426 33.5463 -12.7165 29.7366 -15.3339 25.159L42.5398 -7.93295C39.3608 -13.4927 34.7772 -18.1198 29.2478 -21.3512L-4.39005 36.2069ZM-15.3339 25.159C-17.9513 20.5815 -19.3205 15.3967 -19.3043 10.1237L47.3621 10.3283C47.3817 3.92391 45.7188 -2.37327 42.5398 -7.93295L-15.3339 25.159Z" fill="#EEB45E" mask="url(#path-4-inside-1_189_1102)"/>
</svg>
