<svg width="28" height="28" viewBox="0 0 28 28" fill="none" xmlns="http://www.w3.org/2000/svg">
<mask id="path-1-inside-1_271_984" fill="white">
<path fill-rule="evenodd" clip-rule="evenodd" d="M3.91499 0H24.085C25.1233 0 26.1191 0.412471 26.8533 1.14667C27.5875 1.88088 28 2.87667 28 3.91499V24.085C28 25.1233 27.5875 26.1191 26.8533 26.8533C26.1191 27.5875 25.1233 28 24.085 28H3.91499C2.87756 27.9971 1.88345 27.5837 1.14987 26.8501C0.416293 26.1166 0.00289267 25.1224 0 24.085V3.91499C0.00289267 2.87756 0.416293 1.88345 1.14987 1.14987C1.88345 0.416293 2.87756 0.00289267 3.91499 0ZM25.741 25.741C26.1806 25.3015 26.4295 24.7066 26.434 24.085V3.91499C26.4295 3.29339 26.1806 2.69853 25.741 2.25898C25.3015 1.81943 24.7066 1.5705 24.085 1.566H3.91499C3.29339 1.5705 2.69853 1.81943 2.25898 2.25898C1.81943 2.69853 1.5705 3.29339 1.566 3.91499V24.085C1.5705 24.7066 1.81943 25.3015 2.25898 25.741C2.69853 26.1806 3.29339 26.4295 3.91499 26.434H24.085C24.7066 26.4295 25.3015 26.1806 25.741 25.741ZM5.65154 10.9322C5.35786 11.2259 5.19287 11.6242 5.19287 12.0395V22.2185C5.19287 22.6338 5.35786 23.0322 5.65154 23.3258C5.94522 23.6195 6.34354 23.7845 6.75887 23.7845C7.17419 23.7845 7.57251 23.6195 7.86619 23.3258C8.15987 23.0322 8.32486 22.6338 8.32486 22.2185V12.0395C8.32486 11.6242 8.15987 11.2259 7.86619 10.9322C7.57251 10.6385 7.17419 10.4735 6.75887 10.4735C6.34354 10.4735 5.94522 10.6385 5.65154 10.9322ZM6.75894 7.33524C7.62381 7.33524 8.32493 6.63412 8.32493 5.76924C8.32493 4.90437 7.62381 4.20325 6.75894 4.20325C5.89406 4.20325 5.19294 4.90437 5.19294 5.76924C5.19294 6.63412 5.89406 7.33524 6.75894 7.33524ZM22.8008 22.2216V16.1456C22.8038 15.1556 22.5468 14.1822 22.0554 13.3228C21.564 12.4635 20.8555 11.7482 20.0008 11.2487C19.1461 10.7492 18.1752 10.483 17.1852 10.4767C16.1953 10.4703 15.2211 10.7241 14.3601 11.2127C14.2275 10.9828 14.0353 10.7931 13.8037 10.6635C13.5721 10.534 13.3099 10.4694 13.0446 10.4767C12.6313 10.4831 12.2367 10.6502 11.9444 10.9425C11.6522 11.2348 11.4851 11.6293 11.4786 12.0427V22.2216C11.4786 22.6369 11.6436 23.0353 11.9373 23.3289C12.231 23.6226 12.6293 23.7876 13.0446 23.7876C13.46 23.7876 13.8583 23.6226 14.152 23.3289C14.4456 23.0353 14.6106 22.6369 14.6106 22.2216V16.1456C14.6106 15.4748 14.8771 14.8315 15.3514 14.3572C15.8257 13.8829 16.469 13.6165 17.1397 13.6165C17.8105 13.6165 18.4537 13.8829 18.928 14.3572C19.4023 14.8315 19.6688 15.4748 19.6688 16.1456V22.2216C19.6688 22.6369 19.8338 23.0353 20.1275 23.3289C20.4211 23.6226 20.8195 23.7876 21.2348 23.7876C21.6501 23.7876 22.0484 23.6226 22.3421 23.3289C22.6358 23.0353 22.8008 22.6369 22.8008 22.2216Z"/>
</mask>
<path fill-rule="evenodd" clip-rule="evenodd" d="M3.91499 0H24.085C25.1233 0 26.1191 0.412471 26.8533 1.14667C27.5875 1.88088 28 2.87667 28 3.91499V24.085C28 25.1233 27.5875 26.1191 26.8533 26.8533C26.1191 27.5875 25.1233 28 24.085 28H3.91499C2.87756 27.9971 1.88345 27.5837 1.14987 26.8501C0.416293 26.1166 0.00289267 25.1224 0 24.085V3.91499C0.00289267 2.87756 0.416293 1.88345 1.14987 1.14987C1.88345 0.416293 2.87756 0.00289267 3.91499 0ZM25.741 25.741C26.1806 25.3015 26.4295 24.7066 26.434 24.085V3.91499C26.4295 3.29339 26.1806 2.69853 25.741 2.25898C25.3015 1.81943 24.7066 1.5705 24.085 1.566H3.91499C3.29339 1.5705 2.69853 1.81943 2.25898 2.25898C1.81943 2.69853 1.5705 3.29339 1.566 3.91499V24.085C1.5705 24.7066 1.81943 25.3015 2.25898 25.741C2.69853 26.1806 3.29339 26.4295 3.91499 26.434H24.085C24.7066 26.4295 25.3015 26.1806 25.741 25.741ZM5.65154 10.9322C5.35786 11.2259 5.19287 11.6242 5.19287 12.0395V22.2185C5.19287 22.6338 5.35786 23.0322 5.65154 23.3258C5.94522 23.6195 6.34354 23.7845 6.75887 23.7845C7.17419 23.7845 7.57251 23.6195 7.86619 23.3258C8.15987 23.0322 8.32486 22.6338 8.32486 22.2185V12.0395C8.32486 11.6242 8.15987 11.2259 7.86619 10.9322C7.57251 10.6385 7.17419 10.4735 6.75887 10.4735C6.34354 10.4735 5.94522 10.6385 5.65154 10.9322ZM6.75894 7.33524C7.62381 7.33524 8.32493 6.63412 8.32493 5.76924C8.32493 4.90437 7.62381 4.20325 6.75894 4.20325C5.89406 4.20325 5.19294 4.90437 5.19294 5.76924C5.19294 6.63412 5.89406 7.33524 6.75894 7.33524ZM22.8008 22.2216V16.1456C22.8038 15.1556 22.5468 14.1822 22.0554 13.3228C21.564 12.4635 20.8555 11.7482 20.0008 11.2487C19.1461 10.7492 18.1752 10.483 17.1852 10.4767C16.1953 10.4703 15.2211 10.7241 14.3601 11.2127C14.2275 10.9828 14.0353 10.7931 13.8037 10.6635C13.5721 10.534 13.3099 10.4694 13.0446 10.4767C12.6313 10.4831 12.2367 10.6502 11.9444 10.9425C11.6522 11.2348 11.4851 11.6293 11.4786 12.0427V22.2216C11.4786 22.6369 11.6436 23.0353 11.9373 23.3289C12.231 23.6226 12.6293 23.7876 13.0446 23.7876C13.46 23.7876 13.8583 23.6226 14.152 23.3289C14.4456 23.0353 14.6106 22.6369 14.6106 22.2216V16.1456C14.6106 15.4748 14.8771 14.8315 15.3514 14.3572C15.8257 13.8829 16.469 13.6165 17.1397 13.6165C17.8105 13.6165 18.4537 13.8829 18.928 14.3572C19.4023 14.8315 19.6688 15.4748 19.6688 16.1456V22.2216C19.6688 22.6369 19.8338 23.0353 20.1275 23.3289C20.4211 23.6226 20.8195 23.7876 21.2348 23.7876C21.6501 23.7876 22.0484 23.6226 22.3421 23.3289C22.6358 23.0353 22.8008 22.6369 22.8008 22.2216Z" fill="url(#paint0_linear_271_984)"/>
<path d="M3.91499 0V-33.3333H3.86852L3.82205 -33.3332L3.91499 0ZM26.8533 1.14667L50.4235 -22.4236L50.4235 -22.4236L26.8533 1.14667ZM26.8533 26.8533L50.4235 50.4236L50.4236 50.4236L26.8533 26.8533ZM3.91499 28L3.82202 61.3332L3.8685 61.3333H3.91499V28ZM1.14987 26.8501L-22.4204 50.4203L-22.4203 50.4204L1.14987 26.8501ZM0 24.085H-33.3333V24.1315L-33.3332 24.178L0 24.085ZM0 3.91499L-33.3332 3.82205L-33.3333 3.86852V3.91499H0ZM26.434 24.085L59.7665 24.3268L59.7673 24.2059V24.085H26.434ZM26.434 3.91499H59.7673V3.79409L59.7665 3.6732L26.434 3.91499ZM24.085 1.566L24.3268 -31.7665L24.2059 -31.7673H24.085V1.566ZM3.91499 1.566V-31.7673H3.79409L3.6732 -31.7665L3.91499 1.566ZM1.566 3.91499L-31.7665 3.6732L-31.7673 3.79409V3.91499H1.566ZM1.566 24.085H-31.7673V24.2059L-31.7665 24.3268L1.566 24.085ZM3.91499 26.434L3.6732 59.7665L3.79409 59.7673H3.91499V26.434ZM24.085 26.434V59.7673H24.2059L24.3268 59.7665L24.085 26.434ZM22.8008 16.1456L-10.5324 16.0433L-10.5326 16.0944V16.1456H22.8008ZM22.0554 13.3228L-6.88146 29.8688L-6.88145 29.8689L22.0554 13.3228ZM17.1852 10.4767L16.9722 43.8093L17.1852 10.4767ZM14.3601 11.2127L-14.5147 27.8668L2.02227 56.5383L30.8098 40.2043L14.3601 11.2127ZM13.0446 10.4767L13.5655 43.8059L13.7614 43.8029L13.9572 43.7975L13.0446 10.4767ZM11.4786 12.0427L-21.8506 11.5218L-21.8547 11.7822V12.0427H11.4786ZM11.9373 23.3289L-11.633 46.8991L-11.6329 46.8992L11.9373 23.3289ZM15.3514 14.3572L-8.21883 -9.21302L-8.21888 -9.21297L15.3514 14.3572ZM18.928 14.3572L42.4983 -9.21297L42.4983 -9.213L18.928 14.3572ZM20.1275 23.3289L-3.44285 46.8991L-3.44269 46.8993L20.1275 23.3289ZM22.3421 23.3289L45.9123 46.8993L45.9123 46.8992L22.3421 23.3289ZM24.085 -33.3333H3.91499V33.3333H24.085V-33.3333ZM50.4235 -22.4236C43.4381 -29.409 33.9639 -33.3333 24.085 -33.3333V33.3333C16.2828 33.3333 8.80011 30.2339 3.28311 24.7169L50.4235 -22.4236ZM61.3333 3.91499C61.3333 -5.96386 57.409 -15.4381 50.4235 -22.4236L3.28311 24.7169C-2.23392 19.1999 -5.33333 11.7172 -5.33333 3.91499H61.3333ZM61.3333 24.085V3.91499H-5.33333V24.085H61.3333ZM50.4236 50.4236C57.409 43.4381 61.3333 33.9639 61.3333 24.085H-5.33333C-5.33333 16.2828 -2.23391 8.80011 3.2831 3.2831L50.4236 50.4236ZM24.085 61.3333C33.9639 61.3333 43.4382 57.4089 50.4235 50.4236L3.28313 3.28307C8.80008 -2.23386 16.2827 -5.33333 24.085 -5.33333V61.3333ZM3.91499 61.3333H24.085V-5.33333H3.91499V61.3333ZM-22.4203 50.4204C-15.4583 57.3824 -6.02372 61.3057 3.82202 61.3332L4.00796 -5.3332C11.7788 -5.31153 19.2252 -2.21495 24.7201 3.27989L-22.4203 50.4204ZM-33.3332 24.178C-33.3057 34.0237 -29.3824 43.4583 -22.4204 50.4203L24.7201 3.27992C30.2149 8.77477 33.3115 16.2212 33.3332 23.9921L-33.3332 24.178ZM-33.3333 3.91499V24.085H33.3333V3.91499H-33.3333ZM-22.4204 -22.4204C-29.3824 -15.4583 -33.3057 -6.0237 -33.3332 3.82205L33.3332 4.00793C33.3115 11.7788 30.215 19.2252 24.7201 24.7201L-22.4204 -22.4204ZM3.82205 -33.3332C-6.0237 -33.3057 -15.4583 -29.3824 -22.4204 -22.4204L24.7201 24.7201C19.2252 30.215 11.7788 33.3115 4.00793 33.3332L3.82205 -33.3332ZM-6.89845 23.8432C-6.83944 15.7083 -3.58169 7.92328 2.17079 2.17079L49.3112 49.3112C55.9428 42.6797 59.6984 33.7049 59.7665 24.3268L-6.89845 23.8432ZM-6.89933 3.91499V24.085H59.7673V3.91499H-6.89933ZM2.17081 25.8292C-3.5817 20.0767 -6.83944 12.2917 -6.89845 4.15678L59.7665 3.6732C59.6984 -5.70489 55.9428 -14.6797 49.3112 -21.3113L2.17081 25.8292ZM23.8432 34.8985C15.7082 34.8394 7.92323 31.5816 2.17081 25.8292L49.3112 -21.3113C42.6797 -27.9428 33.705 -31.6984 24.3268 -31.7665L23.8432 34.8985ZM3.91499 34.8993H24.085V-31.7673H3.91499V34.8993ZM25.8292 25.8292C20.0768 31.5816 12.2918 34.8394 4.15678 34.8985L3.6732 -31.7665C-5.70497 -31.6984 -14.6797 -27.9428 -21.3112 -21.3112L25.8292 25.8292ZM34.8985 4.15678C34.8394 12.2918 31.5816 20.0768 25.8292 25.8292L-21.3112 -21.3112C-27.9428 -14.6797 -31.6984 -5.70497 -31.7665 3.6732L34.8985 4.15678ZM34.8993 24.085V3.91499H-31.7673V24.085H34.8993ZM25.8292 2.1708C31.5816 7.92322 34.8394 15.7082 34.8985 23.8432L-31.7665 24.3268C-31.6984 33.705 -27.9428 42.6797 -21.3113 49.3112L25.8292 2.1708ZM4.15678 -6.89845C12.2917 -6.83944 20.0767 -3.5817 25.8292 2.1708L-21.3113 49.3112C-14.6797 55.9428 -5.70488 59.6984 3.6732 59.7665L4.15678 -6.89845ZM24.085 -6.89933H3.91499V59.7673H24.085V-6.89933ZM2.17079 2.17079C7.92329 -3.5817 15.7083 -6.83944 23.8432 -6.89845L24.3268 59.7665C33.7049 59.6984 42.6797 55.9428 49.3112 49.3112L2.17079 2.17079ZM38.5262 12.0395C38.5262 20.4648 35.1793 28.5449 29.2218 34.5024L-17.9187 -12.638C-24.4636 -6.09314 -28.1405 2.78364 -28.1405 12.0395H38.5262ZM38.5262 22.2185V12.0395H-28.1405V22.2185H38.5262ZM29.2217 -0.244429C35.1793 5.71316 38.5262 13.7933 38.5262 22.2185H-28.1405C-28.1405 31.4743 -24.4636 40.3511 -17.9186 46.8961L29.2217 -0.244429ZM6.75887 -9.54883C15.184 -9.54883 23.2642 -6.20195 29.2217 -0.244429L-17.9186 46.8961C-11.3737 53.441 -2.49697 57.1178 6.75887 57.1178V-9.54883ZM-15.704 -0.244429C-9.74644 -6.20196 -1.6663 -9.54883 6.75887 -9.54883V57.1178C16.0147 57.1178 24.8915 53.441 31.4364 46.8961L-15.704 -0.244429ZM-25.0085 22.2185C-25.0085 13.7933 -21.6616 5.71316 -15.704 -0.244429L31.4364 46.8961C37.9814 40.3511 41.6582 31.4743 41.6582 22.2185H-25.0085ZM-25.0085 12.0395V22.2185H41.6582V12.0395H-25.0085ZM-15.704 34.5024C-21.6615 28.5449 -25.0085 20.4648 -25.0085 12.0395H41.6582C41.6582 2.78364 37.9813 -6.09314 31.4364 -12.638L-15.704 34.5024ZM6.75887 43.8069C-1.66636 43.8069 -9.7465 40.46 -15.704 34.5024L31.4364 -12.638C24.8915 -19.1829 16.0147 -22.8598 6.75887 -22.8598V43.8069ZM29.2218 34.5024C23.2642 40.46 15.1841 43.8069 6.75887 43.8069V-22.8598C-2.49703 -22.8598 -11.3738 -19.1829 -17.9187 -12.638L29.2218 34.5024ZM-25.0084 5.76924C-25.0084 -11.7754 -10.7857 -25.9981 6.75894 -25.9981V40.6686C26.0333 40.6686 41.6583 25.0436 41.6583 5.76924H-25.0084ZM6.75894 37.5366C-10.7857 37.5366 -25.0084 23.3139 -25.0084 5.76924H41.6583C41.6583 -13.5051 26.0333 -29.1301 6.75894 -29.1301V37.5366ZM38.5263 5.76924C38.5263 23.3139 24.3036 37.5366 6.75894 37.5366V-29.1301C-12.5154 -29.1301 -28.1404 -13.5051 -28.1404 5.76924H38.5263ZM6.75894 -25.9981C24.3036 -25.9981 38.5263 -11.7754 38.5263 5.76924H-28.1404C-28.1404 25.0436 -12.5154 40.6686 6.75894 40.6686V-25.9981ZM-10.5326 16.1456V22.2216H56.1341V16.1456H-10.5326ZM-6.88145 29.8689C-9.28829 25.6596 -10.5473 20.892 -10.5324 16.0433L56.134 16.2478C56.1549 9.4192 54.3818 2.70485 50.9922 -3.22317L-6.88145 29.8689ZM3.18187 40.0278C-1.00443 37.5813 -4.47465 34.078 -6.88146 29.8688L50.9922 -3.22316C47.6026 -9.15113 42.7154 -14.0848 36.8197 -17.5304L3.18187 40.0278ZM16.9722 43.8093C12.1236 43.7783 7.36812 42.4743 3.18187 40.0278L36.8197 -17.5304C30.924 -20.9759 24.2268 -22.8124 17.3982 -22.856L16.9722 43.8093ZM30.8098 40.2043C26.5926 42.5972 21.8209 43.8403 16.9722 43.8093L17.3982 -22.856C10.5697 -22.8996 3.84951 -21.1489 -2.08971 -17.779L30.8098 40.2043ZM-2.4725 39.753C-7.48455 36.9486 -11.6453 32.8417 -14.5147 27.8668L43.2348 -5.44149C40.1003 -10.8761 35.5551 -15.3625 30.0799 -18.4259L-2.4725 39.753ZM13.9572 43.7975C8.21614 43.9547 2.5394 42.5572 -2.4725 39.753L30.0799 -18.4259C24.6049 -21.4893 18.4036 -23.0159 12.1321 -22.8442L13.9572 43.7975ZM35.5147 34.5127C29.6833 40.3441 21.8113 43.6771 13.5655 43.8059L12.5238 -22.8526C3.45135 -22.7108 -5.20978 -19.0438 -11.6258 -12.6278L35.5147 34.5127ZM44.8079 12.5635C44.679 20.8093 41.3461 28.6813 35.5147 34.5127L-11.6258 -12.6278C-18.0418 -6.21174 -21.7088 2.44941 -21.8506 11.5218L44.8079 12.5635ZM44.812 22.2216V12.0427H-21.8547V22.2216H44.812ZM35.5076 -0.241238C41.4651 5.7163 44.812 13.7964 44.812 22.2216H-21.8547C-21.8547 31.4775 -18.1778 40.3542 -11.633 46.8991L35.5076 -0.241238ZM13.0446 -9.54572C21.4698 -9.54572 29.5499 -6.19885 35.5075 -0.241314L-11.6329 46.8992C-5.08797 53.4441 3.78881 57.1209 13.0446 57.1209V-9.54572ZM-9.41827 -0.241276C-3.46069 -6.19885 4.61947 -9.54572 13.0446 -9.54572V57.1209C22.3004 57.1209 31.1772 53.4441 37.7222 46.8992L-9.41827 -0.241276ZM-18.7227 22.2216C-18.7227 13.7964 -15.3758 5.71623 -9.41827 -0.241276L37.7222 46.8992C44.2671 40.3543 47.944 31.4775 47.944 22.2216H-18.7227ZM-18.7227 16.1456V22.2216H47.944V16.1456H-18.7227ZM-8.21888 -9.21297C-14.9444 -2.48748 -18.7227 6.63426 -18.7227 16.1456H47.944C47.944 24.3154 44.6985 32.1505 38.9216 37.9274L-8.21888 -9.21297ZM17.1397 -19.7169C7.62842 -19.7169 -1.49332 -15.9385 -8.21883 -9.21302L38.9216 37.9275C33.1447 43.7044 25.3095 46.9498 17.1397 46.9498V-19.7169ZM42.4983 -9.213C35.7727 -15.9385 26.651 -19.7169 17.1397 -19.7169V46.9498C8.96995 46.9498 1.13476 43.7044 -4.64219 37.9275L42.4983 -9.213ZM53.0021 16.1456C53.0021 6.63422 49.2237 -2.4875 42.4983 -9.21297L-4.64221 37.9274C-10.4191 32.1505 -13.6645 24.3154 -13.6645 16.1456H53.0021ZM53.0021 22.2216V16.1456H-13.6645V22.2216H53.0021ZM43.6978 -0.2412C49.6552 5.71632 53.0021 13.7964 53.0021 22.2216H-13.6645C-13.6645 31.4775 -9.98769 40.3542 -3.44285 46.8991L43.6978 -0.2412ZM21.2348 -9.54572C29.6599 -9.54572 37.7401 -6.19887 43.6976 -0.241353L-3.44269 46.8993C3.10223 53.4441 11.979 57.1209 21.2348 57.1209V-9.54572ZM-1.22804 -0.241353C4.72945 -6.19881 12.8096 -9.54572 21.2348 -9.54572V57.1209C30.4907 57.1209 39.3674 53.4441 45.9123 46.8993L-1.22804 -0.241353ZM-10.5326 22.2216C-10.5326 13.7963 -7.18559 5.7162 -1.22812 -0.241276L45.9123 46.8992C52.4572 40.3543 56.1341 31.4776 56.1341 22.2216H-10.5326Z" fill="url(#paint1_linear_271_984)" mask="url(#path-1-inside-1_271_984)"/>
<defs>
<linearGradient id="paint0_linear_271_984" x1="0" y1="13.9999" x2="28" y2="13.9999" gradientUnits="userSpaceOnUse">
<stop stop-color="#947341"/>
<stop offset="0.141176" stop-color="#B38F52"/>
<stop offset="0.301961" stop-color="#D2AB63"/>
<stop offset="0.521569" stop-color="#E5D896"/>
<stop offset="0.721569" stop-color="#D2AB63"/>
<stop offset="1" stop-color="#846439"/>
</linearGradient>
<linearGradient id="paint1_linear_271_984" x1="0" y1="13.9999" x2="28" y2="13.9999" gradientUnits="userSpaceOnUse">
<stop stop-color="#947341"/>
<stop offset="0.141176" stop-color="#B38F52"/>
<stop offset="0.301961" stop-color="#D2AB63"/>
<stop offset="0.521569" stop-color="#E5D896"/>
<stop offset="0.721569" stop-color="#D2AB63"/>
<stop offset="1" stop-color="#846439"/>
</linearGradient>
</defs>
</svg>
