<svg width="30" height="30" viewBox="0 0 30 30" fill="none" xmlns="http://www.w3.org/2000/svg">
<path d="M4.91499 0.749938L4.91429 0.74994C3.8108 0.753017 2.75338 1.19274 1.97309 1.97303C1.1928 2.75332 0.753078 3.81074 0.75 4.91423V4.91493L0.749999 25.0849L0.750001 25.0856C0.753078 26.1891 1.1928 27.2466 1.97309 28.0268C2.75338 28.8071 3.8108 29.2469 4.91429 29.2499H4.91499H25.085C26.1896 29.2499 27.249 28.8111 28.0301 28.03C28.8112 27.249 29.25 26.1896 29.25 25.0849V4.91493C29.25 3.8103 28.8112 2.75092 28.0301 1.96984C27.249 1.18875 26.1896 0.749939 25.085 0.749939L4.91499 0.749938ZM27.184 25.0839C27.1798 25.6396 26.9572 26.1713 26.5642 26.5642C26.1713 26.9571 25.6396 27.1797 25.084 27.1839H4.91603C4.36039 27.1797 3.82869 26.9571 3.43576 26.5642C3.04286 26.1713 2.82026 25.6396 2.816 25.084V4.91586C2.82026 4.36026 3.04286 3.8286 3.43576 3.4357C3.82866 3.0428 4.36032 2.82019 4.91592 2.81593H25.0841C25.6397 2.82019 26.1713 3.0428 26.5642 3.4357C26.9572 3.82862 27.1798 4.36033 27.184 4.91597V25.0839Z" fill="white" stroke="white" stroke-width="0.5"/>
<path d="M6.19287 13.0395C6.19287 12.6241 6.35786 12.2258 6.65154 11.9322C6.94522 11.6385 7.34354 11.4735 7.75887 11.4735C8.17419 11.4735 8.57251 11.6385 8.86619 11.9322C9.15987 12.2258 9.32486 12.6241 9.32486 13.0395V23.2184C9.32486 23.6338 9.15987 24.0321 8.86619 24.3258C8.57251 24.6195 8.17419 24.7844 7.75887 24.7844C7.34354 24.7844 6.94522 24.6195 6.65154 24.3258C6.35786 24.0321 6.19287 23.6338 6.19287 23.2184V13.0395Z" fill="white"/>
<path d="M7.75887 8.33518C8.62374 8.33518 9.32486 7.63406 9.32486 6.76918C9.32486 5.90431 8.62374 5.20319 7.75887 5.20319C6.89399 5.20319 6.19287 5.90431 6.19287 6.76918C6.19287 7.63406 6.89399 8.33518 7.75887 8.33518Z" fill="white"/>
<path d="M23.8008 17.1455V23.2216C23.8008 23.6369 23.6358 24.0352 23.3421 24.3289C23.0484 24.6226 22.6501 24.7876 22.2348 24.7876C21.8195 24.7876 21.4211 24.6226 21.1275 24.3289C20.8338 24.0352 20.6688 23.6369 20.6688 23.2216V17.1455C20.6688 16.4747 20.4023 15.8315 19.928 15.3572C19.4537 14.8829 18.8105 14.6164 18.1397 14.6164C17.469 14.6164 16.8257 14.8829 16.3514 15.3572C15.8771 15.8315 15.6106 16.4747 15.6106 17.1455V23.2216C15.6106 23.6369 15.4456 24.0352 15.152 24.3289C14.8583 24.6226 14.46 24.7876 14.0446 24.7876C13.6293 24.7876 13.231 24.6226 12.9373 24.3289C12.6436 24.0352 12.4786 23.6369 12.4786 23.2216V13.0426C12.4851 12.6293 12.6522 12.2347 12.9445 11.9424C13.2367 11.6501 13.6313 11.4831 14.0446 11.4766C14.3099 11.4693 14.5721 11.5339 14.8037 11.6635C15.0353 11.793 15.2275 11.9828 15.3601 12.2126C16.2211 11.7241 17.1953 11.4703 18.1852 11.4766C19.1752 11.4829 20.1461 11.7492 21.0008 12.2487C21.8555 12.7482 22.564 13.4634 23.0554 14.3228C23.5468 15.1822 23.8038 16.1555 23.8008 17.1455Z" fill="white"/>
</svg>
