<svg width="16" height="16" viewBox="0 0 16 16" fill="none" xmlns="http://www.w3.org/2000/svg">
<g clip-path="url(#clip0_244_8)">
<path d="M8 -6.10352e-05C4.72327 -6.10352e-05 2.06661 2.65659 2.06661 5.93333C2.06661 10.8003 8 15.9999 8 15.9999C8 15.9999 13.9334 11.067 13.9334 5.93365C13.9334 2.65659 11.2767 -6.10352e-05 8 -6.10352e-05ZM8 9.53365C5.97486 9.53365 4.33339 7.89153 4.33339 5.86704C4.33339 3.8419 5.97453 2.20043 8 2.20043C10.0248 2.20043 11.6666 3.8419 11.6666 5.86704C11.6666 7.89153 10.0248 9.53365 8 9.53365Z" fill="white"/>
</g>
<defs>
<clipPath id="clip0_244_8">
<rect width="16" height="16" fill="white"/>
</clipPath>
</defs>
</svg>
