<svg width="16" height="16" viewBox="0 0 16 16" fill="none" xmlns="http://www.w3.org/2000/svg">
<g clip-path="url(#clip0_251_14)">
<path d="M6.6254 9.3738C5.09823 7.84663 4.7534 6.31945 4.67561 5.70759C4.65387 5.53841 4.71209 5.36875 4.83312 5.24856L6.06899 4.01325C6.25078 3.83156 6.28304 3.54841 6.14678 3.33049L4.17906 0.275039C4.0283 0.0337285 3.71876 -0.053363 3.4643 0.0739357L0.3054 1.56166C0.0996235 1.66299 -0.0214116 1.88162 0.00195206 2.1098C0.167469 3.68221 0.852986 7.54759 4.65161 11.3465C8.45023 15.1454 12.3151 15.8306 13.8883 15.9961C14.1165 16.0195 14.3351 15.8985 14.4364 15.6927L15.9242 12.5338C16.051 12.2799 15.9645 11.9712 15.7242 11.8201L12.6687 9.85297C12.4509 9.71656 12.1678 9.7486 11.986 9.93021L10.7506 11.1661C10.6305 11.2871 10.4608 11.3453 10.2916 11.3236C9.67974 11.2458 8.15257 10.901 6.6254 9.3738Z" fill="#EEB45E"/>
<path d="M12.6897 8.55092C12.385 8.55092 12.138 8.3039 12.138 7.99919C12.1354 5.71495 10.2843 3.86385 8.00003 3.86126C7.69532 3.86126 7.4483 3.61425 7.4483 3.30954C7.4483 3.00483 7.69532 2.75781 8.00003 2.75781C10.8934 2.76101 13.2382 5.10578 13.2414 7.99919C13.2414 8.3039 12.9944 8.55092 12.6897 8.55092Z" fill="#EEB45E"/>
<path d="M15.4483 8.55093C15.1436 8.55093 14.8966 8.30392 14.8966 7.99921C14.8923 4.19211 11.8071 1.10691 8.00003 1.10265C7.69532 1.10265 7.4483 0.85564 7.4483 0.550931C7.4483 0.246222 7.69532 -0.000793457 8.00003 -0.000793457C12.4163 0.00407161 15.9952 3.58295 16 7.99921C16 8.14553 15.9419 8.28587 15.8384 8.38933C15.735 8.4928 15.5946 8.55093 15.4483 8.55093Z" fill="#EEB45E"/>
</g>
<defs>
<clipPath id="clip0_251_14">
<rect width="16" height="16" fill="white" transform="translate(0 -0.000793457)"/>
</clipPath>
</defs>
</svg>
